<svg xmlns="http://www.w3.org/2000/svg" width="192" height="192" viewBox="0 0 192 192">
  <defs>
    <linearGradient id="g" x1="0" y1="0" x2="0" y2="1">
      <stop offset="0" stop-color="#0b1220"/>
      <stop offset="1" stop-color="#0e1526"/>
    </linearGradient>
  </defs>
  <rect width="192" height="192" fill="url(#g)" rx="24"/>
  <rect x="20" y="28" width="152" height="136" rx="10" fill="#0a1222" stroke="#334155" stroke-width="2"/>
  <!-- triangles stylisés -->
  <g opacity="0.4">
    <path d="M28 40 L40 100 L28 160 Z" fill="#0ea5e9"/>
    <path d="M40 40 L52 100 L40 160 Z" fill="#1f2937"/>
    <path d="M52 40 L64 100 L52 160 Z" fill="#0ea5e9"/>
    <path d="M64 40 L76 100 L64 160 Z" fill="#1f2937"/>
    <path d="M76 40 L88 100 L76 160 Z" fill="#0ea5e9"/>
    <path d="M88 40 L100 100 L88 160 Z" fill="#1f2937"/>
    <path d="M100 40 L112 100 L100 160 Z" fill="#0ea5e9"/>
    <path d="M112 40 L124 100 L112 160 Z" fill="#1f2937"/>
    <path d="M124 40 L136 100 L124 160 Z" fill="#0ea5e9"/>
    <path d="M136 40 L148 100 L136 160 Z" fill="#1f2937"/>
    <path d="M148 40 L160 100 L148 160 Z" fill="#0ea5e9"/>
    <path d="M160 40 L172 100 L160 160 Z" fill="#1f2937"/>
  </g>
  <!-- pions -->
  <circle cx="56" cy="68" r="12" fill="#f3f4f6" stroke="#cbd5e1"/>
  <circle cx="136" cy="124" r="12" fill="#0f172a" stroke="#475569"/>
</svg>

